<?xml version="1.0" encoding="UTF-8"?>
<svg width="14px" height="14px" viewBox="0 0 14 14" version="1.1" xmlns="http://www.w3.org/2000/svg" xmlns:xlink="http://www.w3.org/1999/xlink">
    <!-- Generator: Sketch 60 (88103) - https://sketch.com -->
    <title>Group 129</title>
    <desc>Created with Sketch.</desc>
    <g id="流量主版_后台" stroke="none" stroke-width="1" fill="none" fill-rule="evenodd" opacity="0.65">
        <g id="3_0_0_账户管理" transform="translate(-409.000000, -258.000000)">
            <g id="编组备份" transform="translate(312.000000, 254.000000)">
                <g id="Group-129" transform="translate(96.000000, 3.000000)">
                    <rect id="Rectangle-44" x="0" y="0" width="16" height="16"></rect>
                    <g id="edit" transform="translate(1.000000, 1.000000)" fill="#BFBFBF" fill-rule="nonzero">
                        <path d="M13.4375,12.875 L0.5625,12.875 C0.2515625,12.875 0,13.1265625 0,13.4375 C0,13.7484375 0.2515625,14 0.5625,14 L13.4375,14 C13.7484375,14 14,13.7484375 14,13.4375 C14,13.1265625 13.7484375,12.875 13.4375,12.875 Z M3.625,11.03125 L7.3046875,9.4734375 C7.3640625,9.4484375 7.4171875,9.4125 7.4640625,9.3671875 L13.6703125,3.1609375 C14.109375,2.721875 14.1125,2.00625 13.6734375,1.5671875 L12.434375,0.328125 C11.9953125,-0.1109375 11.2796875,-0.1078125 10.840625,0.33125 L4.634375,6.5375 C4.5890625,6.5828125 4.553125,6.6375 4.528125,6.696875 L2.96875,10.375 C2.88125,10.58125 2.9421875,10.7890625 3.075,10.9234375 C3.2078125,11.0578125 3.4171875,11.11875 3.625,11.03125 Z M11.6359375,1.1265625 L11.6390625,1.1234375 L12.8765625,2.3609375 L12.8734375,2.3640625 L11.9046875,3.3328125 L10.6671875,2.0953125 L11.6359375,1.1265625 Z M5.515625,7.246875 L9.871875,2.890625 L11.109375,4.128125 L6.753125,8.484375 L4.60625,9.39375 L5.515625,7.246875 Z" id="Shape"></path>
                    </g>
                </g>
            </g>
        </g>
    </g>
</svg>