<?xml version="1.0" encoding="UTF-8"?>
<svg width="13px" height="14px" viewBox="0 0 13 14" version="1.1" xmlns="http://www.w3.org/2000/svg" xmlns:xlink="http://www.w3.org/1999/xlink">
    <!-- Generator: Sketch 60 (88103) - https://sketch.com -->
    <title>zhanghu</title>
    <desc>Created with Sketch.</desc>
    <g id="流量主版_后台" stroke="none" stroke-width="1" fill="none" fill-rule="evenodd">
        <g id="3_0_0_账户管理" transform="translate(-25.000000, -187.000000)" fill="#ccc" fill-rule="nonzero">
            <g id="Group-3" transform="translate(0.000000, 1.000000)">
                <g id="编组-9" transform="translate(24.000000, 74.000000)">
                    <g id="zhanghu" transform="translate(1.000000, 112.000000)">
                        <path d="M9.33333333,4.08333333 C9.33333333,2.47250281 8.02749719,1.16666667 6.41666667,1.16666667 C4.80583615,1.16666667 3.5,2.47250281 3.5,4.08333333 C3.5,5.69416385 4.80583615,7 6.41666667,7 C8.02749719,7 9.33333333,5.69416385 9.33333333,4.08333333 Z M10.5,4.08333333 C10.5,6.33849606 8.6718294,8.16666667 6.41666667,8.16666667 C4.16150394,8.16666667 2.33333333,6.33849606 2.33333333,4.08333333 C2.33333333,1.8281706 4.16150394,0 6.41666667,0 C8.6718294,0 10.5,1.8281706 10.5,4.08333333 Z" id="形状"></path>
                        <path d="M1.16666667,13.4166667 C1.16666667,13.7388328 0.905499437,14 0.583333333,14 C0.261167229,14 0,13.7388328 0,13.4166667 C0,9.87283952 2.87283952,7 6.41666667,7 C9.96049381,7 12.8333333,9.87283952 12.8333333,13.4166667 C12.8333333,13.7388328 12.5721661,14 12.25,14 C11.9278339,14 11.6666667,13.7388328 11.6666667,13.4166667 C11.6666667,10.5171717 9.3161616,8.16666667 6.41666667,8.16666667 C3.51717173,8.16666667 1.16666667,10.5171717 1.16666667,13.4166667 L1.16666667,13.4166667 Z" id="路径"></path>
                    </g>
                </g>
            </g>
        </g>
    </g>
</svg>