<?xml version="1.0" encoding="UTF-8"?>
<svg width="14px" height="12px" viewBox="0 0 14 12" version="1.1" xmlns="http://www.w3.org/2000/svg" xmlns:xlink="http://www.w3.org/1999/xlink">
    <!-- Generator: Sketch 60 (88103) - https://sketch.com -->
    <title>形状</title>
    <desc>Created with Sketch.</desc>
    <g id="流量主版_后台" stroke="none" stroke-width="1" fill="none" fill-rule="evenodd">
        <g id="3_0_0_账户管理" transform="translate(-24.000000, -80.000000)" fill="#fff" fill-rule="nonzero">
            <g id="Group-3" transform="translate(0.000000, 1.000000)">
                <g id="编组-9" transform="translate(24.000000, 74.000000)">
                    <path d="M3.5891875,11.4262656 L6.4035,8.48182813 L9.12365625,11.3281875 C9.14460937,11.3606875 9.15823437,11.3974531 9.18604688,11.4262813 C9.409125,11.6597969 9.77010938,11.6597969 9.992625,11.4262813 L13.117625,8.15676563 C13.15175,8.13367188 13.1848125,8.10664063 13.2146875,8.07540625 C13.4424531,7.83690625 13.4424531,7.45015625 13.2146875,7.21140625 C12.9864531,6.97289063 12.6164844,6.97289063 12.38875,7.21140625 C12.3719219,7.22948438 12.3645937,7.25285938 12.3498906,7.27228125 L9.60535938,10.1443125 L6.82778125,7.23784375 C6.82071875,7.22970313 6.81829687,7.21920312 6.81096875,7.21132812 C6.58296875,6.9728125 6.21323437,6.9728125 5.985,7.21132812 C5.96817187,7.22945313 5.961125,7.25278125 5.9466875,7.27223438 L2.78259375,10.5830156 C2.55979687,10.816 2.55979687,11.1938437 2.78259375,11.4262812 C3.00535938,11.6597969 3.36665625,11.6597969 3.5891875,11.4262656 Z M13.472375,15.2586719 L0.997859375,15.2586719 L0.997859375,5.5129375 C0.997859375,5.2295625 0.774578125,5 0.4990625,5 C0.223296875,5 0,5.2295625 0,5.5129375 L0,15.7718906 C0,16.0552969 0.223296875,16.2845625 0.4990625,16.2845625 L13.4724219,16.2845625 C13.7479062,16.2845625 13.9714531,16.0552813 13.9714531,15.7718906 C13.9714531,15.4885313 13.747875,15.2586563 13.472375,15.2586563 L13.472375,15.2586719 Z" id="形状"></path>
                </g>
            </g>
        </g>
    </g>
</svg>